<?xml version="1.0" standalone="no"?><!DOCTYPE svg PUBLIC "-//W3C//DTD SVG 1.1//EN" "http://www.w3.org/Graphics/SVG/1.1/DTD/svg11.dtd"><svg t="1770017529870" class="icon" viewBox="0 0 1024 1024" version="1.1" xmlns="http://www.w3.org/2000/svg" p-id="18315" xmlns:xlink="http://www.w3.org/1999/xlink" width="200" height="200"><path d="M948.7 56.6h-874c-19.3 0-37.8 7.7-51.5 21.3S1.9 110.1 1.9 129.4V712c0 19.3 7.7 37.8 21.3 51.5s32.2 21.3 51.5 21.3h364.2v109.3H256.8c-20.1 0-36.4 16.3-36.4 36.4V967h582.7v-36.4c0-20.1-16.3-36.4-36.4-36.4H584.5V784.9h364.2c19.3 0 37.8-7.7 51.5-21.3 13.7-13.7 21.3-32.2 21.3-51.5V129.4c0-19.3-7.7-37.8-21.3-51.5-13.6-13.7-32.2-21.3-51.5-21.3zM475.3 712.1c-0.5-13.3 6.3-25.9 17.8-32.7 11.5-6.8 25.8-6.8 37.2 0 11.5 6.8 18.3 19.4 17.8 32.7-0.8 19.5-16.9 35-36.4 35-19.6 0-35.6-15.5-36.4-35M74.7 129.4h874v509.8h-874V129.4z m0 0" p-id="18316"></path><path d="M899.7 597.4H124.3c-8.7 0-15.8-7.1-15.8-15.8V184.4c0-8.7 7.1-15.8 15.8-15.8h775.3c8.7 0 15.8 7.1 15.8 15.8v397.2c0 8.7-7 15.8-15.7 15.8z" p-id="18317"></path></svg>