<?xml version="1.0" standalone="no"?><!DOCTYPE svg PUBLIC "-//W3C//DTD SVG 1.1//EN" "http://www.w3.org/Graphics/SVG/1.1/DTD/svg11.dtd"><svg t="1770017492284" class="icon" viewBox="0 0 1024 1024" version="1.1" xmlns="http://www.w3.org/2000/svg" p-id="15647" xmlns:xlink="http://www.w3.org/1999/xlink" width="200" height="200"><path d="M825.8 298L669.3 415.4V298c0-21.6-17.5-39.1-39.1-39.1H367.5l301.8 410.9v-58.7l156.4 117.4h78.2V298h-78.1zM196.2 120.7c-12-16.4-34.8-19.5-50.9-7.2s-19.4 35.6-7.4 52l68.7 93.5h-45.5c-21.6 0-39.1 17.5-39.1 39.1v430.5c0 21.6 17.5 39.1 39.1 39.1h419.2l79.8 108.6c12 16.3 34.8 19.5 50.9 7.2s19.4-35.6 7.4-52L196.2 120.7z" p-id="15648"></path></svg>