<?xml version="1.0" standalone="no"?><!DOCTYPE svg PUBLIC "-//W3C//DTD SVG 1.1//EN" "http://www.w3.org/Graphics/SVG/1.1/DTD/svg11.dtd"><svg t="1772156178597" class="icon" viewBox="0 0 1024 1024" version="1.1" xmlns="http://www.w3.org/2000/svg" p-id="10845" xmlns:xlink="http://www.w3.org/1999/xlink" width="200" height="200"><path d="M424.228571 599.771429V731.428571c0 7.314286 7.314286 14.628571 7.314286 14.628572h21.942857l307.2-219.428572c7.314286-7.314286 7.314286-14.628571 0-21.942857l-307.2-219.428571c-7.314286-14.628571-14.628571-14.628571-21.942857-7.314286 0 0-7.314286 7.314286-7.314286 14.628572v138.971428C226.742857 424.228571 73.142857 270.628571 73.142857 80.457143V43.885714c0-21.942857 21.942857-43.885714 43.885714-43.885714h789.942858c21.942857 0 43.885714 21.942857 43.885714 43.885714v936.228572c0 21.942857-21.942857 43.885714-43.885714 43.885714H117.028571c-21.942857 0-43.885714-21.942857-43.885714-43.885714v-36.571429c0-190.171429 153.6-343.771429 351.085714-343.771428z" p-id="10846"></path></svg>