<?xml version="1.0" standalone="no"?><!DOCTYPE svg PUBLIC "-//W3C//DTD SVG 1.1//EN" "http://www.w3.org/Graphics/SVG/1.1/DTD/svg11.dtd"><svg t="1770017484920" class="icon" viewBox="0 0 1024 1024" version="1.1" xmlns="http://www.w3.org/2000/svg" p-id="14640" xmlns:xlink="http://www.w3.org/1999/xlink" width="200" height="200"><path d="M681.22666667 360.83199969V686.72c0 74.592-72.73600031 74.592-72.73600031 74.592H310.31466636l370.88000062-400.48000031z m-76.38400031-137.40799969L128.49066636 737.76000031l-3.648 3.936C113.96266667 729.92 106.66666667 710.27199969 106.66666667 686.72V298.016c0-74.592 72.73600031-74.592 72.73600031-74.592h425.43999938z m276.384 78.528c3.61600031-3.936 10.87999969-3.936 14.52800062-3.936 7.26400031 3.936 10.91200031 7.84000031 10.91199938 15.67999969V714.24000031c0 7.84000031-3.648 11.77600031-7.26399938 15.67999969-3.648 3.936-7.296 3.936-7.296 3.936-3.61600031 0-7.26400031-3.90400031-10.88000062-3.90400031L746.66666698 619.96800031c-3.648-3.90400031-7.26400031-7.84000031-7.26400031-11.77600031V423.68c0-3.90400031 3.61600031-7.84000031 7.26400031-11.77600031l134.55999938-109.92z" p-id="14641"></path><path d="M673.93066667 203.77599969c14.56000031-15.67999969 36.384-15.67999969 50.91199969 0 14.56000031 15.67999969 14.56000031 39.264 0 54.97600031L204.84266698 820.22400031c-14.52799969 15.67999969-36.35200031 15.67999969-50.88 0a40.06399969 40.06399969 0 0 1 0-54.97600031l519.99999938-561.47200031z" p-id="14642"></path></svg>