<?xml version="1.0" standalone="no"?><!DOCTYPE svg PUBLIC "-//W3C//DTD SVG 1.1//EN" "http://www.w3.org/Graphics/SVG/1.1/DTD/svg11.dtd"><svg t="1770017507285" class="icon" viewBox="0 0 1024 1024" version="1.1" xmlns="http://www.w3.org/2000/svg" p-id="16654" xmlns:xlink="http://www.w3.org/1999/xlink" width="200" height="200"><path d="M640 230.4H108.8C64 230.4 32 262.4 32 307.2v422.4c0 44.8 32 76.8 76.8 76.8H640c44.8 0 76.8-32 76.8-76.8V307.2c0-38.4-32-76.8-76.8-76.8zM313.6 460.8c-6.4 32-32 57.6-64 64-64 12.8-115.2-44.8-102.4-102.4 6.4-32 32-57.6 64-64 64-12.8 115.2 38.4 102.4 102.4zM953.6 300.8l-128 76.8c-25.6 19.2-44.8 25.6-44.8 51.2v166.4c0 25.6 19.2 38.4 44.8 51.2l128 76.8c25.6 19.2 44.8 6.4 44.8-19.2V326.4c-6.4-25.6-25.6-38.4-44.8-25.6" p-id="16655"></path></svg>