<?xml version="1.0" standalone="no"?><!DOCTYPE svg PUBLIC "-//W3C//DTD SVG 1.1//EN" "http://www.w3.org/Graphics/SVG/1.1/DTD/svg11.dtd"><svg t="1772156149125" class="icon" viewBox="0 0 1417 1024" version="1.1" xmlns="http://www.w3.org/2000/svg" p-id="8981" xmlns:xlink="http://www.w3.org/1999/xlink" width="276.7578125" height="200"><path d="M669.538462 0c91.608615 0 179.436308 35.524923 244.184615 98.855385a333.745231 333.745231 0 0 1 101.139692 238.670769v573.991384c0 62.227692-51.436308 112.482462-115.003077 112.482462h-669.538461c-30.326154 0-60.258462-5.828923-88.221539-17.092923a230.636308 230.636308 0 0 1-74.67323-48.836923 224.807385 224.807385 0 0 1-49.860924-73.019077A220.711385 220.711385 0 0 1 0 798.956308V112.482462C0 50.254769 51.593846 0 115.081846 0H669.538462z m723.022769 52.539077c16.147692 15.753846 25.284923 37.021538 25.284923 59.313231v786.747077a82.550154 82.550154 0 0 1-25.363692 59.392 86.252308 86.252308 0 0 1-60.967385 24.418461c-22.921846 0-44.898462-8.664615-61.124923-24.497231l-197.868308-192.43323v-520.664616L1270.390154 52.617846c16.305231-15.753846 38.203077-24.576 61.124923-24.576 22.843077 0 44.819692 8.822154 61.046154 24.576zM420.312615 301.056a49.467077 49.467077 0 0 0-50.09723 48.836923v324.214154a48.049231 48.049231 0 0 0 7.246769 25.363692 51.042462 51.042462 0 0 0 71.443692 14.729846l236.859077-162.107077a49.309538 49.309538 0 0 0 21.346462-40.093538 48.049231 48.049231 0 0 0-21.267693-40.093538L448.827077 309.799385a50.884923 50.884923 0 0 0-28.593231-8.743385z" p-id="8982"></path></svg>