<?xml version="1.0" standalone="no"?><!DOCTYPE svg PUBLIC "-//W3C//DTD SVG 1.1//EN" "http://www.w3.org/Graphics/SVG/1.1/DTD/svg11.dtd"><svg t="1770017470821" class="icon" viewBox="0 0 1024 1024" version="1.1" xmlns="http://www.w3.org/2000/svg" p-id="13630" xmlns:xlink="http://www.w3.org/1999/xlink" width="200" height="200"><path d="M512 640c100.9152 0 182.528-81.6128 182.528-182.528V182.4768C694.528 81.6128 612.9152 0 512 0S329.472 81.6128 329.472 182.528v274.9952c0 100.9152 81.6128 182.528 182.528 182.528z" p-id="13631"></path><path d="M870.0928 476.4672v-20.1728c0-24.9856-20.1728-45.1584-45.1584-45.1584s-45.1584 20.1728-45.1584 45.1584v20.1728c0 147.5584-120.1664 267.7248-267.7248 267.7248s-267.7248-120.1664-267.7248-267.7248v-20.1728c0-24.9856-20.1728-45.1584-45.1584-45.1584s-45.1584 20.1728-45.1584 45.1584v20.1728c0 182.2208 136.7552 332.4928 312.9344 354.7648v102.4H286.2592c-24.9856 0-45.1584 20.1728-45.1584 45.1584s20.1728 45.1584 45.1584 45.1584h451.7888c24.9856 0 45.1584-20.1728 45.1584-45.1584s-20.1728-45.1584-45.1584-45.1584h-180.6848v-102.4c176.1792-22.272 312.9344-172.8512 312.9344-354.7648z" p-id="13632"></path></svg>