<?xml version="1.0" standalone="no"?><!DOCTYPE svg PUBLIC "-//W3C//DTD SVG 1.1//EN" "http://www.w3.org/Graphics/SVG/1.1/DTD/svg11.dtd"><svg t="1770017441665" class="icon" viewBox="0 0 1024 1024" version="1.1" xmlns="http://www.w3.org/2000/svg" p-id="10805" xmlns:xlink="http://www.w3.org/1999/xlink" width="200" height="200"><path d="M128.57 639.81c-35.15 0-63.9 28.76-63.9 63.9v191.71c0 35.15 28.76 63.9 63.9 63.9h191.71c35.15 0 63.9-28.76 63.9-63.9s-28.76-63.9-63.9-63.9h-127.8V703.71c0-35.14-28.76-63.9-63.91-63.9z m0-255.62c35.15 0 63.9-28.76 63.9-63.9V192.48h127.81c35.15 0 63.9-28.76 63.9-63.9s-28.76-63.9-63.9-63.9H128.57c-35.15 0-63.9 28.76-63.9 63.9v191.71c0 35.14 28.75 63.9 63.9 63.9z m702.95 447.33H703.71c-35.15 0-63.9 28.76-63.9 63.9 0 35.15 28.76 63.9 63.9 63.9h191.71c35.15 0 63.9-28.76 63.9-63.9V703.71c0-35.15-28.76-63.9-63.9-63.9-35.15 0-63.9 28.76-63.9 63.9v127.81zM639.81 128.57c0 35.15 28.76 63.9 63.9 63.9h127.81v127.81c0 35.15 28.76 63.9 63.9 63.9s63.9-28.76 63.9-63.9V128.57c0-35.15-28.76-63.9-63.9-63.9H703.71c-35.14 0-63.9 28.75-63.9 63.9z" p-id="10806"></path></svg>