<?xml version="1.0" standalone="no"?><!DOCTYPE svg PUBLIC "-//W3C//DTD SVG 1.1//EN" "http://www.w3.org/Graphics/SVG/1.1/DTD/svg11.dtd"><svg t="1772156128921" class="icon" viewBox="0 0 1024 1024" version="1.1" xmlns="http://www.w3.org/2000/svg" p-id="7994" xmlns:xlink="http://www.w3.org/1999/xlink" width="200" height="200"><path d="M861.184 69.632h-37.376V46.592c0-13.824-9.216-23.04-23.04-23.04s-23.04 9.216-23.04 23.04v23.04H284.16V46.592c0-13.824-9.216-23.04-23.04-23.04s-23.04 9.216-23.04 23.04v23.04H162.816c-65.024 0-116.224 51.2-116.224 116.224v651.776c0 65.024 51.2 116.224 116.224 116.224h698.368c65.024 0 116.224-51.2 116.224-116.224V186.368c0-65.536-51.2-116.736-116.224-116.736z m-70.144 409.6l-307.2 325.632-209.408-223.232c-9.216-9.216-9.216-23.04 0-32.768s23.04-9.216 32.768 0l176.64 186.368 269.824-293.376c9.216-9.216 23.04-9.216 37.376 4.608 9.728 9.728 9.728 23.552 0 32.768z m139.776-214.016H93.184V186.368c0-37.376 32.768-69.632 69.632-69.632h74.24v23.04c0 13.824 9.216 23.04 23.04 23.04s23.04-9.216 23.04-23.04v-23.04h493.568v23.04c0 13.824 9.216 23.04 23.04 23.04s23.04-9.216 23.04-23.04v-23.04h37.376c37.376 0 69.632 32.768 69.632 69.632v78.848z" fill="" p-id="7995"></path></svg>